<mxfile host="app.diagrams.net" agent="Mozilla/5.0 (Windows NT 10.0; Win64; x64) AppleWebKit/537.36 (KHTML, like Gecko) Chrome/135.0.0.0 Safari/537.36" version="26.2.14">
  <diagram name="Page-1" id="0rwIy5gSwFDeN-cu-DK_">
    <mxGraphModel dx="1358" dy="830" grid="1" gridSize="10" guides="1" tooltips="1" connect="1" arrows="1" fold="1" page="1" pageScale="1" pageWidth="2336" pageHeight="1654" math="0" shadow="0">
      <root>
        <mxCell id="0" />
        <mxCell id="1" parent="0" />
        <mxCell id="RzOmzHaiy46DHeElriqS-1" value="" style="endArrow=none;html=1;rounded=0;" parent="1" edge="1">
          <mxGeometry width="50" height="50" relative="1" as="geometry">
            <mxPoint x="320" y="160" as="sourcePoint" />
            <mxPoint x="1150" y="160" as="targetPoint" />
          </mxGeometry>
        </mxCell>
        <mxCell id="RzOmzHaiy46DHeElriqS-2" value="" style="endArrow=none;html=1;rounded=0;" parent="1" edge="1">
          <mxGeometry width="50" height="50" relative="1" as="geometry">
            <mxPoint x="320" y="900" as="sourcePoint" />
            <mxPoint x="320" y="160" as="targetPoint" />
          </mxGeometry>
        </mxCell>
        <mxCell id="u7w42iiDskShDQtFD_fB-39" value="Text" style="edgeLabel;html=1;align=center;verticalAlign=middle;resizable=0;points=[];" vertex="1" connectable="0" parent="RzOmzHaiy46DHeElriqS-2">
          <mxGeometry x="-0.0432" y="8" relative="1" as="geometry">
            <mxPoint as="offset" />
          </mxGeometry>
        </mxCell>
        <mxCell id="u7w42iiDskShDQtFD_fB-1" value="" style="endArrow=none;html=1;rounded=0;" edge="1" parent="1">
          <mxGeometry width="50" height="50" relative="1" as="geometry">
            <mxPoint x="320" y="900" as="sourcePoint" />
            <mxPoint x="1150" y="900" as="targetPoint" />
          </mxGeometry>
        </mxCell>
        <mxCell id="u7w42iiDskShDQtFD_fB-2" value="" style="endArrow=none;html=1;rounded=0;" edge="1" parent="1">
          <mxGeometry width="50" height="50" relative="1" as="geometry">
            <mxPoint x="1150" y="900" as="sourcePoint" />
            <mxPoint x="1150" y="160" as="targetPoint" />
          </mxGeometry>
        </mxCell>
        <mxCell id="u7w42iiDskShDQtFD_fB-3" value="" style="endArrow=none;html=1;rounded=0;" edge="1" parent="1">
          <mxGeometry width="50" height="50" relative="1" as="geometry">
            <mxPoint x="320" y="610" as="sourcePoint" />
            <mxPoint x="230" y="530" as="targetPoint" />
          </mxGeometry>
        </mxCell>
        <mxCell id="u7w42iiDskShDQtFD_fB-40" value="Door" style="edgeLabel;html=1;align=center;verticalAlign=middle;resizable=0;points=[];" vertex="1" connectable="0" parent="u7w42iiDskShDQtFD_fB-3">
          <mxGeometry x="-0.04" y="-5" relative="1" as="geometry">
            <mxPoint as="offset" />
          </mxGeometry>
        </mxCell>
        <mxCell id="u7w42iiDskShDQtFD_fB-8" value="c" style="whiteSpace=wrap;html=1;aspect=fixed;" vertex="1" parent="1">
          <mxGeometry x="80" y="160" width="80" height="80" as="geometry" />
        </mxCell>
        <mxCell id="u7w42iiDskShDQtFD_fB-9" value="" style="whiteSpace=wrap;html=1;aspect=fixed;" vertex="1" parent="1">
          <mxGeometry x="80" y="320" width="80" height="80" as="geometry" />
        </mxCell>
        <mxCell id="u7w42iiDskShDQtFD_fB-10" value="" style="whiteSpace=wrap;html=1;aspect=fixed;" vertex="1" parent="1">
          <mxGeometry x="320" width="80" height="80" as="geometry" />
        </mxCell>
        <mxCell id="u7w42iiDskShDQtFD_fB-11" value="" style="whiteSpace=wrap;html=1;aspect=fixed;" vertex="1" parent="1">
          <mxGeometry x="480" width="80" height="80" as="geometry" />
        </mxCell>
        <mxCell id="u7w42iiDskShDQtFD_fB-12" value="" style="whiteSpace=wrap;html=1;aspect=fixed;" vertex="1" parent="1">
          <mxGeometry x="640" width="80" height="80" as="geometry" />
        </mxCell>
        <mxCell id="u7w42iiDskShDQtFD_fB-13" value="" style="whiteSpace=wrap;html=1;aspect=fixed;" vertex="1" parent="1">
          <mxGeometry x="800" width="80" height="80" as="geometry" />
        </mxCell>
        <mxCell id="u7w42iiDskShDQtFD_fB-14" value="" style="whiteSpace=wrap;html=1;aspect=fixed;" vertex="1" parent="1">
          <mxGeometry x="960" width="80" height="80" as="geometry" />
        </mxCell>
        <mxCell id="u7w42iiDskShDQtFD_fB-15" value="" style="whiteSpace=wrap;html=1;aspect=fixed;" vertex="1" parent="1">
          <mxGeometry x="1120" width="80" height="80" as="geometry" />
        </mxCell>
        <mxCell id="u7w42iiDskShDQtFD_fB-16" value="" style="whiteSpace=wrap;html=1;aspect=fixed;" vertex="1" parent="1">
          <mxGeometry x="80" y="480" width="80" height="80" as="geometry" />
        </mxCell>
        <mxCell id="u7w42iiDskShDQtFD_fB-17" value="" style="whiteSpace=wrap;html=1;aspect=fixed;" vertex="1" parent="1">
          <mxGeometry x="80" y="640" width="80" height="80" as="geometry" />
        </mxCell>
        <mxCell id="u7w42iiDskShDQtFD_fB-18" value="" style="whiteSpace=wrap;html=1;aspect=fixed;" vertex="1" parent="1">
          <mxGeometry x="80" y="800" width="80" height="80" as="geometry" />
        </mxCell>
        <mxCell id="u7w42iiDskShDQtFD_fB-19" value="" style="endArrow=classic;html=1;rounded=0;" edge="1" parent="1">
          <mxGeometry relative="1" as="geometry">
            <mxPoint x="320" y="120" as="sourcePoint" />
            <mxPoint x="1130" y="120" as="targetPoint" />
          </mxGeometry>
        </mxCell>
        <mxCell id="u7w42iiDskShDQtFD_fB-20" value="520cm" style="edgeLabel;resizable=0;html=1;;align=center;verticalAlign=middle;" connectable="0" vertex="1" parent="u7w42iiDskShDQtFD_fB-19">
          <mxGeometry relative="1" as="geometry" />
        </mxCell>
        <mxCell id="u7w42iiDskShDQtFD_fB-22" value="Rack" style="rounded=0;whiteSpace=wrap;html=1;" vertex="1" parent="1">
          <mxGeometry x="550" y="800" width="120" height="100" as="geometry" />
        </mxCell>
        <mxCell id="u7w42iiDskShDQtFD_fB-23" value="Rack" style="rounded=0;whiteSpace=wrap;html=1;" vertex="1" parent="1">
          <mxGeometry x="550" y="700" width="120" height="100" as="geometry" />
        </mxCell>
        <mxCell id="u7w42iiDskShDQtFD_fB-24" value="Rack" style="rounded=0;whiteSpace=wrap;html=1;" vertex="1" parent="1">
          <mxGeometry x="550" y="600" width="120" height="100" as="geometry" />
        </mxCell>
        <mxCell id="u7w42iiDskShDQtFD_fB-25" value="Rack&lt;br&gt;80X60CM" style="rounded=0;whiteSpace=wrap;html=1;" vertex="1" parent="1">
          <mxGeometry x="550" y="500" width="120" height="100" as="geometry" />
        </mxCell>
        <mxCell id="u7w42iiDskShDQtFD_fB-27" value="Rack" style="rounded=0;whiteSpace=wrap;html=1;" vertex="1" parent="1">
          <mxGeometry x="800" y="800" width="120" height="100" as="geometry" />
        </mxCell>
        <mxCell id="u7w42iiDskShDQtFD_fB-28" value="Rack" style="rounded=0;whiteSpace=wrap;html=1;" vertex="1" parent="1">
          <mxGeometry x="800" y="700" width="120" height="100" as="geometry" />
        </mxCell>
        <mxCell id="u7w42iiDskShDQtFD_fB-29" value="Rack" style="rounded=0;whiteSpace=wrap;html=1;" vertex="1" parent="1">
          <mxGeometry x="800" y="600" width="120" height="100" as="geometry" />
        </mxCell>
        <mxCell id="u7w42iiDskShDQtFD_fB-30" value="Rack" style="rounded=0;whiteSpace=wrap;html=1;" vertex="1" parent="1">
          <mxGeometry x="800" y="500" width="120" height="100" as="geometry" />
        </mxCell>
        <mxCell id="u7w42iiDskShDQtFD_fB-33" value="Desk" style="rounded=0;whiteSpace=wrap;html=1;" vertex="1" parent="1">
          <mxGeometry x="320" y="160" width="130" height="280" as="geometry" />
        </mxCell>
        <mxCell id="u7w42iiDskShDQtFD_fB-34" value="Desk" style="rounded=0;whiteSpace=wrap;html=1;" vertex="1" parent="1">
          <mxGeometry x="450" y="160" width="470" height="130" as="geometry" />
        </mxCell>
        <mxCell id="u7w42iiDskShDQtFD_fB-35" value="cabinet" style="rounded=0;whiteSpace=wrap;html=1;" vertex="1" parent="1">
          <mxGeometry x="1070" y="280" width="80" height="200" as="geometry" />
        </mxCell>
        <mxCell id="u7w42iiDskShDQtFD_fB-36" value="cabinet" style="whiteSpace=wrap;html=1;aspect=fixed;" vertex="1" parent="1">
          <mxGeometry x="1070" y="630" width="80" height="80" as="geometry" />
        </mxCell>
        <mxCell id="u7w42iiDskShDQtFD_fB-38" value="cabinet" style="whiteSpace=wrap;html=1;aspect=fixed;" vertex="1" parent="1">
          <mxGeometry x="1070" y="760" width="80" height="80" as="geometry" />
        </mxCell>
        <mxCell id="u7w42iiDskShDQtFD_fB-41" value="Windows" style="text;html=1;align=center;verticalAlign=middle;resizable=0;points=[];autosize=1;strokeColor=none;fillColor=none;" vertex="1" parent="1">
          <mxGeometry x="1145" y="438" width="70" height="30" as="geometry" />
        </mxCell>
        <mxCell id="u7w42iiDskShDQtFD_fB-42" value="&lt;h1&gt;LAB&lt;/h1&gt;" style="text;html=1;align=center;verticalAlign=middle;resizable=0;points=[];autosize=1;strokeColor=none;fillColor=none;" vertex="1" parent="1">
          <mxGeometry x="665" y="348" width="70" height="70" as="geometry" />
        </mxCell>
        <mxCell id="u7w42iiDskShDQtFD_fB-46" value="" style="endArrow=classic;html=1;rounded=0;" edge="1" parent="1">
          <mxGeometry relative="1" as="geometry">
            <mxPoint x="1200" y="899" as="sourcePoint" />
            <mxPoint x="1200" y="160" as="targetPoint" />
          </mxGeometry>
        </mxCell>
        <mxCell id="u7w42iiDskShDQtFD_fB-47" value="470cm" style="edgeLabel;resizable=0;html=1;;align=center;verticalAlign=middle;" connectable="0" vertex="1" parent="u7w42iiDskShDQtFD_fB-46">
          <mxGeometry relative="1" as="geometry" />
        </mxCell>
        <mxCell id="u7w42iiDskShDQtFD_fB-50" value="c" style="whiteSpace=wrap;html=1;aspect=fixed;" vertex="1" parent="1">
          <mxGeometry x="80" y="960" width="80" height="80" as="geometry" />
        </mxCell>
        <mxCell id="u7w42iiDskShDQtFD_fB-51" value="" style="whiteSpace=wrap;html=1;aspect=fixed;" vertex="1" parent="1">
          <mxGeometry x="80" y="1120" width="80" height="80" as="geometry" />
        </mxCell>
        <mxCell id="u7w42iiDskShDQtFD_fB-52" value="" style="whiteSpace=wrap;html=1;aspect=fixed;" vertex="1" parent="1">
          <mxGeometry x="80" y="1280" width="80" height="80" as="geometry" />
        </mxCell>
        <mxCell id="u7w42iiDskShDQtFD_fB-53" value="" style="whiteSpace=wrap;html=1;aspect=fixed;" vertex="1" parent="1">
          <mxGeometry x="80" y="1440" width="80" height="80" as="geometry" />
        </mxCell>
        <mxCell id="u7w42iiDskShDQtFD_fB-55" value="" style="endArrow=none;html=1;rounded=0;" edge="1" parent="1">
          <mxGeometry width="50" height="50" relative="1" as="geometry">
            <mxPoint x="320" y="1520" as="sourcePoint" />
            <mxPoint x="320" y="1140" as="targetPoint" />
          </mxGeometry>
        </mxCell>
        <mxCell id="u7w42iiDskShDQtFD_fB-57" value="" style="whiteSpace=wrap;html=1;aspect=fixed;" vertex="1" parent="1">
          <mxGeometry x="320" y="1574" width="80" height="80" as="geometry" />
        </mxCell>
        <mxCell id="u7w42iiDskShDQtFD_fB-58" value="" style="whiteSpace=wrap;html=1;aspect=fixed;" vertex="1" parent="1">
          <mxGeometry x="480" y="1574" width="80" height="80" as="geometry" />
        </mxCell>
        <mxCell id="u7w42iiDskShDQtFD_fB-59" value="" style="whiteSpace=wrap;html=1;aspect=fixed;" vertex="1" parent="1">
          <mxGeometry x="640" y="1574" width="80" height="80" as="geometry" />
        </mxCell>
        <mxCell id="u7w42iiDskShDQtFD_fB-60" value="" style="whiteSpace=wrap;html=1;aspect=fixed;" vertex="1" parent="1">
          <mxGeometry x="800" y="1574" width="80" height="80" as="geometry" />
        </mxCell>
        <mxCell id="u7w42iiDskShDQtFD_fB-61" value="" style="whiteSpace=wrap;html=1;aspect=fixed;" vertex="1" parent="1">
          <mxGeometry x="960" y="1574" width="80" height="80" as="geometry" />
        </mxCell>
        <mxCell id="u7w42iiDskShDQtFD_fB-62" value="" style="whiteSpace=wrap;html=1;aspect=fixed;" vertex="1" parent="1">
          <mxGeometry x="1120" y="1574" width="80" height="80" as="geometry" />
        </mxCell>
        <mxCell id="u7w42iiDskShDQtFD_fB-63" value="" style="endArrow=none;html=1;rounded=0;" edge="1" parent="1">
          <mxGeometry width="50" height="50" relative="1" as="geometry">
            <mxPoint x="320" y="1520" as="sourcePoint" />
            <mxPoint x="1090" y="1520" as="targetPoint" />
          </mxGeometry>
        </mxCell>
        <mxCell id="u7w42iiDskShDQtFD_fB-64" value="" style="endArrow=none;html=1;rounded=0;" edge="1" parent="1">
          <mxGeometry width="50" height="50" relative="1" as="geometry">
            <mxPoint x="320" y="1140" as="sourcePoint" />
            <mxPoint x="1090" y="1140" as="targetPoint" />
          </mxGeometry>
        </mxCell>
        <mxCell id="u7w42iiDskShDQtFD_fB-65" value="" style="endArrow=none;html=1;rounded=0;" edge="1" parent="1">
          <mxGeometry width="50" height="50" relative="1" as="geometry">
            <mxPoint x="1090" y="1140" as="sourcePoint" />
            <mxPoint x="1090" y="1520" as="targetPoint" />
          </mxGeometry>
        </mxCell>
        <mxCell id="u7w42iiDskShDQtFD_fB-66" value="" style="endArrow=none;html=1;rounded=0;" edge="1" parent="1">
          <mxGeometry width="50" height="50" relative="1" as="geometry">
            <mxPoint x="320" y="1360" as="sourcePoint" />
            <mxPoint x="250" y="1280" as="targetPoint" />
          </mxGeometry>
        </mxCell>
        <mxCell id="u7w42iiDskShDQtFD_fB-69" value="RACK&lt;br&gt;120x75cm" style="rounded=0;whiteSpace=wrap;html=1;" vertex="1" parent="1">
          <mxGeometry x="510" y="1140" width="190" height="120" as="geometry" />
        </mxCell>
        <mxCell id="u7w42iiDskShDQtFD_fB-70" value="RACK&lt;br&gt;120x75cm" style="rounded=0;whiteSpace=wrap;html=1;" vertex="1" parent="1">
          <mxGeometry x="510" y="1260" width="190" height="120" as="geometry" />
        </mxCell>
        <mxCell id="u7w42iiDskShDQtFD_fB-75" value="1" style="endArrow=classic;html=1;rounded=0;" edge="1" parent="1">
          <mxGeometry relative="1" as="geometry">
            <mxPoint x="960" y="519.52" as="sourcePoint" />
            <mxPoint x="1140" y="520" as="targetPoint" />
          </mxGeometry>
        </mxCell>
        <mxCell id="u7w42iiDskShDQtFD_fB-76" value="146 cm" style="edgeLabel;resizable=0;html=1;;align=center;verticalAlign=middle;" connectable="0" vertex="1" parent="u7w42iiDskShDQtFD_fB-75">
          <mxGeometry relative="1" as="geometry" />
        </mxCell>
        <mxCell id="u7w42iiDskShDQtFD_fB-78" value="" style="endArrow=classic;html=1;rounded=0;" edge="1" parent="1">
          <mxGeometry relative="1" as="geometry">
            <mxPoint x="340" y="510" as="sourcePoint" />
            <mxPoint x="540" y="510" as="targetPoint" />
          </mxGeometry>
        </mxCell>
        <mxCell id="u7w42iiDskShDQtFD_fB-79" value="140 cm" style="edgeLabel;resizable=0;html=1;;align=center;verticalAlign=middle;" connectable="0" vertex="1" parent="u7w42iiDskShDQtFD_fB-78">
          <mxGeometry relative="1" as="geometry" />
        </mxCell>
        <mxCell id="u7w42iiDskShDQtFD_fB-84" value="" style="endArrow=classic;html=1;rounded=0;" edge="1" parent="1">
          <mxGeometry relative="1" as="geometry">
            <mxPoint x="670" y="510" as="sourcePoint" />
            <mxPoint x="770" y="510" as="targetPoint" />
          </mxGeometry>
        </mxCell>
        <mxCell id="u7w42iiDskShDQtFD_fB-85" value="80cm" style="edgeLabel;resizable=0;html=1;;align=center;verticalAlign=middle;" connectable="0" vertex="1" parent="u7w42iiDskShDQtFD_fB-84">
          <mxGeometry relative="1" as="geometry" />
        </mxCell>
        <mxCell id="u7w42iiDskShDQtFD_fB-86" value="" style="endArrow=classic;html=1;rounded=0;" edge="1" parent="1">
          <mxGeometry relative="1" as="geometry">
            <mxPoint x="320" y="1100" as="sourcePoint" />
            <mxPoint x="1090" y="1100" as="targetPoint" />
          </mxGeometry>
        </mxCell>
        <mxCell id="u7w42iiDskShDQtFD_fB-87" value="480cm" style="edgeLabel;resizable=0;html=1;;align=center;verticalAlign=middle;" connectable="0" vertex="1" parent="u7w42iiDskShDQtFD_fB-86">
          <mxGeometry relative="1" as="geometry" />
        </mxCell>
        <mxCell id="u7w42iiDskShDQtFD_fB-88" value="" style="endArrow=classic;html=1;rounded=0;" edge="1" parent="1">
          <mxGeometry relative="1" as="geometry">
            <mxPoint x="1130" y="1520" as="sourcePoint" />
            <mxPoint x="1130" y="1140" as="targetPoint" />
          </mxGeometry>
        </mxCell>
        <mxCell id="u7w42iiDskShDQtFD_fB-89" value="240cm" style="edgeLabel;resizable=0;html=1;;align=center;verticalAlign=middle;" connectable="0" vertex="1" parent="u7w42iiDskShDQtFD_fB-88">
          <mxGeometry relative="1" as="geometry" />
        </mxCell>
        <mxCell id="u7w42iiDskShDQtFD_fB-90" value="" style="endArrow=classic;html=1;rounded=0;" edge="1" parent="1">
          <mxGeometry relative="1" as="geometry">
            <mxPoint x="320" y="1270" as="sourcePoint" />
            <mxPoint x="500" y="1270" as="targetPoint" />
          </mxGeometry>
        </mxCell>
        <mxCell id="u7w42iiDskShDQtFD_fB-91" value="120cm" style="edgeLabel;resizable=0;html=1;;align=center;verticalAlign=middle;" connectable="0" vertex="1" parent="u7w42iiDskShDQtFD_fB-90">
          <mxGeometry relative="1" as="geometry" />
        </mxCell>
        <mxCell id="u7w42iiDskShDQtFD_fB-93" value="" style="endArrow=classic;html=1;rounded=0;" edge="1" parent="1">
          <mxGeometry relative="1" as="geometry">
            <mxPoint x="720" y="1260" as="sourcePoint" />
            <mxPoint x="1080" y="1260" as="targetPoint" />
          </mxGeometry>
        </mxCell>
        <mxCell id="u7w42iiDskShDQtFD_fB-94" value="250cm" style="edgeLabel;resizable=0;html=1;;align=center;verticalAlign=middle;" connectable="0" vertex="1" parent="u7w42iiDskShDQtFD_fB-93">
          <mxGeometry relative="1" as="geometry" />
        </mxCell>
        <mxCell id="u7w42iiDskShDQtFD_fB-96" value="DESK" style="rounded=0;whiteSpace=wrap;html=1;" vertex="1" parent="1">
          <mxGeometry x="840" y="1140" width="240" height="110" as="geometry" />
        </mxCell>
        <mxCell id="u7w42iiDskShDQtFD_fB-97" value="" style="rounded=0;whiteSpace=wrap;html=1;" vertex="1" parent="1">
          <mxGeometry x="1010" y="1340" width="80" height="180" as="geometry" />
        </mxCell>
        <mxCell id="u7w42iiDskShDQtFD_fB-98" value="SHELF" style="rounded=0;whiteSpace=wrap;html=1;" vertex="1" parent="1">
          <mxGeometry x="770" y="1460" width="240" height="60" as="geometry" />
        </mxCell>
      </root>
    </mxGraphModel>
  </diagram>
</mxfile>
